<svg xmlns="http://www.w3.org/2000/svg" xmlns:xlink="http://www.w3.org/1999/xlink" width="200" height="200" viewBox="0 0 52.917 52.917"><defs><linearGradient id="a"><stop style="stop-color:#37ffff;stop-opacity:1" offset="0"/><stop style="stop-color:#1433a4;stop-opacity:1" offset="1"/></linearGradient><linearGradient xlink:href="#a" id="b" x1="22.991" y1="251.433" x2="40.617" y2="288.286" gradientUnits="userSpaceOnUse"/></defs><g style="stroke:url(#b);stroke-opacity:1" transform="translate(0 -244.083)"><rect rx="14.819" ry="14.819" y="261.491" x="9.818" height="25.84" width="39.505" style="fill:none;fill-opacity:1;stroke:url(#b);stroke-width:3;stroke-linecap:round;stroke-miterlimit:4;stroke-dasharray:none;stroke-opacity:1"/><path d="M35.12 261.491s-1.48-7.812-2.078-9.128c-.599-1.316-5.725-1.942-6.465-.359-.739 1.584-2.914 9.487-2.914 9.487z" style="fill:none;fill-rule:evenodd;stroke:url(#b);stroke-width:3;stroke-linecap:butt;stroke-linejoin:miter;stroke-miterlimit:4;stroke-dasharray:none;stroke-opacity:1"/><rect rx="4.705" ry="4.705" y="278.367" x="33.496" height="5.61" width="6.206" style="fill:none;fill-opacity:1;stroke:url(#b);stroke-width:3;stroke-linecap:round;stroke-miterlimit:4;stroke-dasharray:none;stroke-opacity:1"/><path d="m3.847 271.766-.444-5.977s1.953-.78 2.781-.348c1.981 1.032 3.129 5.925 3.129 5.925l.283 3.082-5.589.213z" style="opacity:1;vector-effect:none;fill:none;fill-opacity:1;stroke:url(#b);stroke-width:3;stroke-linecap:round;stroke-linejoin:round;stroke-miterlimit:4;stroke-dasharray:none;stroke-dashoffset:0;stroke-opacity:1"/><path d="m3.85 277.231-.526 6.116s1.996.823 2.852.39c2.043-1.032 3.283-6.03 3.283-6.03l.327-3.153-5.737-.286z" style="opacity:1;vector-effect:none;fill:none;fill-opacity:1;stroke:url(#b);stroke-width:3;stroke-linecap:round;stroke-linejoin:round;stroke-miterlimit:4;stroke-dasharray:none;stroke-dashoffset:0;stroke-opacity:1"/></g></svg>