<svg width="200" height="200" viewBox="0 0 52.917 52.917" xmlns:xlink="http://www.w3.org/1999/xlink" xmlns="http://www.w3.org/2000/svg"><defs><linearGradient id="a"><stop style="stop-color:#37ffff;stop-opacity:1" offset="0"/><stop style="stop-color:#1433a4;stop-opacity:1" offset="1"/></linearGradient><linearGradient xlink:href="#a" id="b" x1="22.991" y1="251.433" x2="40.617" y2="288.286" gradientUnits="userSpaceOnUse"/><linearGradient xlink:href="#a" id="d" x1="23.166" y1="252.391" x2="41.312" y2="291.405" gradientUnits="userSpaceOnUse"/><linearGradient xlink:href="#a" id="e" x1="23.166" y1="252.391" x2="41.312" y2="291.405" gradientUnits="userSpaceOnUse"/><linearGradient xlink:href="#a" id="c" x1="29.388" y1="247.676" x2="38.639" y2="281.336" gradientUnits="userSpaceOnUse"/></defs><g style="stroke:url(#b);stroke-width:.941092;stroke-opacity:1" transform="matrix(1.06209 0 0 1.0631 -1.53 -259.728)"><path d="M36.88 261.907s-1.4-9.151-1.967-10.396c-.567-1.245-7.648-1.837-8.349-.34-.7 1.498-2.76 10.736-2.76 10.736z" style="fill:url(#c);fill-opacity:1;fill-rule:evenodd;stroke:url(#linearGradient224);stroke-width:4.70546;stroke-linecap:butt;stroke-linejoin:miter;stroke-miterlimit:4;stroke-dasharray:none;stroke-opacity:1"/><rect rx="10.304" ry="11.735" y="261.907" x="12.362" height="26.144" width="36.38" style="fill:url(#d);fill-opacity:1;stroke:url(#linearGradient222);stroke-width:4.70546;stroke-linecap:round;stroke-miterlimit:4;stroke-dasharray:none;stroke-opacity:1"/><path d="M4.031 284.007s2.394.778 3.205.369c2.762-2.012 11.046-7.046 11.271-10.16-.237-2.7-9.408-8.795-11.263-9.905-.785-.409-3.264.329-3.264.329l.988 9.573z" style="opacity:1;fill:url(#e);fill-opacity:1;stroke:url(#linearGradient230);stroke-width:4.70546;stroke-linecap:round;stroke-linejoin:round;stroke-miterlimit:4;stroke-dasharray:none;stroke-dashoffset:0;stroke-opacity:1"/></g></svg>