<svg xmlns="http://www.w3.org/2000/svg" width="500" height="500" viewBox="0 0 132.292 132.292"><g transform="translate(0 -164.708)"><rect style="fill:none;fill-opacity:1;stroke:#fff;stroke-width:3.96875048;stroke-linecap:round;stroke-miterlimit:4;stroke-dasharray:none;stroke-opacity:1" width="73.568" height="48.121" x="19.359" y="201.664" ry="27.596" rx="27.596"/><path style="fill:none;fill-rule:evenodd;stroke:#fff;stroke-width:3.96875048;stroke-linecap:butt;stroke-linejoin:miter;stroke-miterlimit:4;stroke-dasharray:none;stroke-opacity:1" d="M66.477 201.664s-2.754-14.548-3.869-16.999c-1.115-2.45-10.661-3.617-12.038-.668-1.377 2.948-5.427 17.667-5.427 17.667z"/><rect style="fill:none;fill-opacity:1;stroke:#fff;stroke-width:3.96875072;stroke-linecap:round;stroke-miterlimit:4;stroke-dasharray:none;stroke-opacity:1" width="11.556" height="10.448" x="63.454" y="233.089" ry="8.763" rx="8.763"/><path style="opacity:1;vector-effect:none;fill:none;fill-opacity:1;stroke:#fff;stroke-width:3.96875095;stroke-linecap:round;stroke-linejoin:miter;stroke-miterlimit:4;stroke-dasharray:none;stroke-dashoffset:0;stroke-opacity:1" d="M71.638 250.762a28.151 28.151 0 0 1-17.085 13.335" transform="rotate(-6.699) skewX(.004)"/><path style="opacity:1;vector-effect:none;fill:none;fill-opacity:1;stroke:#fff;stroke-width:3.96875048;stroke-linecap:round;stroke-linejoin:round;stroke-miterlimit:4;stroke-dasharray:none;stroke-dashoffset:0;stroke-opacity:1" d="m8.24 220.798-.826-11.13s3.636-1.452 5.179-.648c3.688 1.921 5.826 11.033 5.826 11.033l.527 5.739-10.407.397z"/><path style="opacity:1;vector-effect:none;fill:none;fill-opacity:1;stroke:#fff;stroke-width:3.96875048;stroke-linecap:round;stroke-linejoin:round;stroke-miterlimit:4;stroke-dasharray:none;stroke-dashoffset:0;stroke-opacity:1" d="m8.246 230.976-.979 11.389s3.716 1.532 5.31.726c3.804-1.923 6.114-11.23 6.114-11.23l.609-5.87-10.683-.533z"/><path style="opacity:1;vector-effect:none;fill:none;fill-opacity:1;stroke:#fff;stroke-width:3.96875119;stroke-linecap:round;stroke-linejoin:miter;stroke-miterlimit:4;stroke-dasharray:none;stroke-dashoffset:0;stroke-opacity:1" d="M83.17 256.256a44.572 44.61 0 0 1-27.05 21.132" transform="rotate(-6.705) skewX(-.008)"/><path style="opacity:1;vector-effect:none;fill:none;fill-opacity:1;stroke:#fff;stroke-width:3.96875119;stroke-linecap:round;stroke-linejoin:miter;stroke-miterlimit:4;stroke-dasharray:none;stroke-dashoffset:0;stroke-opacity:1" d="M95.462 262.761a61.156 61.232 0 0 1-37.115 29.007" transform="rotate(-6.707) skewX(-.013)"/></g></svg>